<svg xmlns="http://www.w3.org/2000/svg" viewBox="0 0 170.27 86.6"><defs><style>.cls-1{fill:#fff;fill-rule:evenodd;}</style></defs><g id="Layer_2" data-name="Layer 2"><g id="Layer_1-2" data-name="Layer 1"><path class="cls-1" d="M57.09,44.11a294,294,0,0,0,30,26.78q44.07-29.68,36.76-51.42-9.06-18.31-29.34-8L88.63,6.6a26.41,26.41,0,0,1,42,10.06c7.09,22.25-13.43,40.71-43.17,62.76A233.54,233.54,0,0,1,51.47,49l5.69-4.94Z"/><path class="cls-1" d="M46.44,52.21q6.31,4.6-5.75,19.17C33,80.73,25.79,89.71,14.45,85.56A4.43,4.43,0,0,1,9,79.39,4.43,4.43,0,0,1,13.37,77a4.48,4.48,0,0,1,3.82,3.27q6,2.83,16-8.72c-.39-4.8,5.36-6.7,9-13.4-.56-3.66-3.33-7-8.37-10.12-5.91-.3-8.85,5.91-14.9,5.13Q5.32,59,6.93,66.48A4.5,4.5,0,0,1,9,71.09,4.53,4.53,0,1,1,.76,67.82Q-.82,54.11,19,46.78q18.09-9.84,20.85-2.51L44,40.55,45.23,42l35-28.39,5.69,5-36.5,29,1.17,1.27-4.25,3.37Z"/><path class="cls-1" d="M51.37,34.47,45.1,39.3C32.19,8.4,63.46-9.21,85.91,6.41l34.8,28.65-3.95,6.2L79,10.75A18.69,18.69,0,0,0,51.37,34.47Z"/><path class="cls-1" d="M149.73,50.51a12.42,12.42,0,1,0,12.42,12.41A12.4,12.4,0,0,0,149.73,50.51Zm-10,30.09A20.3,20.3,0,0,1,131.4,55l-4.28-3.4.69-.88L125,48.45l4.37-6.6a40.43,40.43,0,0,1,3.14,3.33l1.08-1.3,3.63,3.43a20.29,20.29,0,1,1,2.51,33.29Z"/><path class="cls-1" d="M150.39,54.76a8.3,8.3,0,1,0,8.3,8.29A8.3,8.3,0,0,0,150.39,54.76ZM139.5,63a10.23,10.23,0,1,1,10.23,10.22A10.22,10.22,0,0,1,139.5,63Z"/><path class="cls-1" d="M150.45,67.1a5.47,5.47,0,0,0,1.5-10,5.92,5.92,0,1,1-7.25,8,5.56,5.56,0,0,0,5.72,2Z"/><path class="cls-1" d="M87,50.08h6.77V43.32H87ZM76.57,43.32v6.76h6.76V43.32Zm6.76-10.45H76.57v6.76h6.76Zm10.46,0H87v6.76h6.77Z"/></g></g></svg>